<svg xmlns="http://www.w3.org/2000/svg" width="12.681" height="15.499" viewBox="0 0 12.681 15.499"><defs><style>.a{fill:#31d500;}</style></defs><path class="a" d="M48.921,7.353a1.019,1.019,0,0,0-.749-.308H47.82V4.932a4.745,4.745,0,0,0-1.453-3.478,4.89,4.89,0,0,0-6.957,0,4.746,4.746,0,0,0-1.453,3.478V7.045H37.6A1.052,1.052,0,0,0,36.548,8.1v6.341A1.052,1.052,0,0,0,37.6,15.5H48.172a1.052,1.052,0,0,0,1.057-1.057V8.1A1.018,1.018,0,0,0,48.921,7.353Zm-3.214-.308H40.07V4.932A2.715,2.715,0,0,1,40.9,2.939a2.817,2.817,0,0,1,3.985,0,2.715,2.715,0,0,1,.825,1.992Z" transform="translate(-36.548)"/></svg>